<svg width="30" height="33" viewBox="0 0 30 33" fill="none" xmlns="http://www.w3.org/2000/svg">
<path d="M30 11.8027C29.9923 9.77576 29.2931 7.81217 28.018 6.23656C28.4508 4.43516 28.3158 2.54396 27.6313 0.822372C27.5647 0.658775 27.4626 0.511984 27.3325 0.392571C27.2023 0.273157 27.0473 0.184092 26.8786 0.131788C26.3951 -0.0339528 24.5651 -0.344716 20.8359 2.07233C19.2321 1.64905 17.5775 1.4492 15.919 1.47843C14.2582 1.44883 12.6012 1.64868 10.9951 2.07233C7.16926 -0.399963 5.18038 0.000576127 4.77984 0.117976C4.61019 0.172617 4.45473 0.264105 4.32459 0.385885C4.19446 0.507664 4.09287 0.65672 4.0271 0.822372C3.34092 2.53836 3.20104 4.4243 3.62656 6.22275C2.30978 7.79046 1.60783 9.78341 1.65149 11.8303C1.65149 19.4682 6.02289 21.7747 10.0283 22.5896C9.82269 23.0924 9.68116 23.6191 9.60703 24.1572C9.5998 24.2146 9.5998 24.2726 9.60703 24.3299V26.4431C5.96074 26.7469 5.18038 24.613 5.10441 24.3713C5.08674 24.315 5.06599 24.2596 5.04226 24.2056C4.33799 22.7687 3.09824 21.6653 1.58934 21.1325C1.2853 21.0308 0.953334 21.0541 0.66647 21.1972C0.379606 21.3403 0.161341 21.5915 0.0596898 21.8956C-0.0419609 22.1996 -0.0186696 22.5316 0.124439 22.8184C0.267547 23.1053 0.518749 23.3236 0.822786 23.4252C1.65896 23.7273 2.35627 24.3239 2.78405 25.1033C3.26746 26.671 5.24253 29.1502 9.59321 28.8739V30.8628C9.59321 31.1833 9.72054 31.4907 9.94718 31.7174C10.1738 31.944 10.4812 32.0713 10.8017 32.0713C11.1223 32.0713 11.4297 31.944 11.6563 31.7174C11.8829 31.4907 12.0103 31.1833 12.0103 30.8628V24.4197C12.102 23.716 12.4082 23.0577 12.8873 22.5344C13.0551 22.3773 13.1744 22.1753 13.2309 21.9524C13.2874 21.7296 13.2788 21.4952 13.2061 21.2771C13.1334 21.059 12.9997 20.8664 12.8207 20.722C12.6418 20.5776 12.4253 20.4876 12.1967 20.4626C7.98415 19.9723 4.08925 18.5842 4.08925 11.782C4.06125 10.9609 4.20391 10.1429 4.50821 9.37976C4.81252 8.61663 5.27184 7.92493 5.85715 7.3484C6.01455 7.17899 6.12331 6.97023 6.17192 6.74415C6.22054 6.51807 6.20723 6.28305 6.13338 6.06391C5.72655 4.88173 5.69999 3.60185 6.05742 2.40381C7.54027 2.7386 8.93278 3.39127 10.1388 4.31673C10.2937 4.41929 10.4698 4.48559 10.654 4.51069C10.8381 4.5358 11.0255 4.51907 11.2023 4.46176C12.7367 3.99472 14.3363 3.77786 15.9397 3.81951C17.5408 3.77776 19.1382 3.99463 20.6702 4.46176C20.8469 4.51958 21.0344 4.53657 21.2186 4.51145C21.4028 4.48633 21.5789 4.41976 21.7337 4.31673C22.8953 3.42673 24.2248 2.78075 25.6424 2.41762C25.9945 3.62892 25.9631 4.91948 25.5526 6.11225C25.485 6.3113 25.4711 6.52466 25.5124 6.73078C25.5536 6.93691 25.6485 7.12852 25.7874 7.28625C26.9307 8.50691 27.5782 10.1097 27.6037 11.782C27.6037 18.5704 23.5085 19.9792 19.4962 20.4626C19.256 20.4893 19.0294 20.5879 18.8461 20.7454C18.6627 20.9028 18.5311 21.112 18.4685 21.3454C18.4058 21.5788 18.415 21.8257 18.4949 22.0539C18.5748 22.282 18.7215 22.4807 18.9161 22.6241C19.3443 22.9487 19.8415 23.8603 19.8415 25.3865V30.8559C19.8415 31.1764 19.9688 31.4838 20.1955 31.7105C20.4221 31.9371 20.7295 32.0644 21.05 32.0644C21.3705 32.0644 21.6779 31.9371 21.9046 31.7105C22.1312 31.4838 22.2585 31.1764 22.2585 30.8559V25.3865C22.2712 24.4247 22.0952 23.4699 21.7406 22.5758C24.9864 21.8852 30 19.7513 30 11.8027Z" fill="white"/>
</svg>
